HIERARCHY
ROOT Hips
{
    OFFSET 0.0 0.0 0.0
    CHANNELS 6 Xposition Yposition Zposition Zrotation Xrotation Yrotation
    JOINT LeftUpLeg
    {
        OFFSET 13.657167746836471 0.0 0.0
        CHANNELS 3 Zrotation Xrotation Yrotation
        JOINT LeftLeg
        {
            OFFSET 0.0 0.0 -50.32970777524156
            CHANNELS 3 Zrotation Xrotation Yrotation
            JOINT LeftFoot
            {
                OFFSET 0.0 0.0 -40.16889191350016
                CHANNELS 3 Zrotation Xrotation Yrotation
                JOINT LeftToeBase
                {
                    OFFSET 0.0 -10.968672293762406 0.0
                    CHANNELS 3 Zrotation Xrotation Yrotation
                    End Site
                    {
                        OFFSET 0 0 0
                    }
                }
            }
        }
    }
    JOINT RightUpLeg
    {
        OFFSET -13.657167746836471 0.0 0.0
        CHANNELS 3 Zrotation Xrotation Yrotation
        JOINT RightLeg
        {
            OFFSET 0.0 0.0 -50.32970777524156
            CHANNELS 3 Zrotation Xrotation Yrotation
            JOINT RightFoot
            {
                OFFSET 0.0 0.0 -40.16889191350016
                CHANNELS 3 Zrotation Xrotation Yrotation
                JOINT RightToeBase
                {
                    OFFSET 0.0 -10.968672293762406 0.0
                    CHANNELS 3 Zrotation Xrotation Yrotation
                    End Site
                    {
                        OFFSET 0 0 0
                    }
                }
            }
        }
    }
    JOINT Spine
    {
        OFFSET 0.0 0.0 11.632399322143366
        CHANNELS 3 Zrotation Xrotation Yrotation
        JOINT Spine1
        {
            OFFSET 0.0 0.0 11.58053449850095
            CHANNELS 3 Zrotation Xrotation Yrotation
            JOINT Spine2
            {
                OFFSET 0.0 0.0 11.580534498500954
                CHANNELS 3 Zrotation Xrotation Yrotation
                JOINT Spine3
                {
                    OFFSET 0.0 0.0 11.58053449850095
                    CHANNELS 3 Zrotation Xrotation Yrotation
                    JOINT Spine4
                    {
                        OFFSET 0.0 0.0 11.580534498500956
                        CHANNELS 3 Zrotation Xrotation Yrotation
                        JOINT RightShoulder
                        {
                            OFFSET -22.56377678385227 0.0 0.0
                            CHANNELS 3 Zrotation Xrotation Yrotation
                            JOINT RightArm
                            {
                                OFFSET -31.492436603099335 0.0 0.0
                                CHANNELS 3 Zrotation Xrotation Yrotation
                                JOINT RightForeArm
                                {
                                    OFFSET -30.420649885086902 0.0 0.0
                                    CHANNELS 3 Zrotation Xrotation Yrotation
                                    JOINT RightHand
                                    {
                                        OFFSET -10.073514517287517 0.0 0.0
                                        CHANNELS 3 Zrotation Xrotation Yrotation
                                        End Site
                                        {
                                            OFFSET 0 0 0
                                        }
                                    }
                                }
                            }
                        }
                        JOINT LeftShoulder
                        {
                            OFFSET 22.56377678385227 0.0 0.0
                            CHANNELS 3 Zrotation Xrotation Yrotation
                            JOINT LeftArm
                            {
                                OFFSET 31.492436603099335 0.0 0.0
                                CHANNELS 3 Zrotation Xrotation Yrotation
                                JOINT LeftForeArm
                                {
                                    OFFSET 30.420649885086902 0.0 0.0
                                    CHANNELS 3 Zrotation Xrotation Yrotation
                                    JOINT LeftHand
                                    {
                                        OFFSET 10.073514517287517 0.0 0.0
                                        CHANNELS 3 Zrotation Xrotation Yrotation
                                        End Site
                                        {
                                            OFFSET 0 0 0
                                        }
                                    }
                                }
                            }
                        }
                        JOINT Neck
                        {
                            OFFSET 0.0 0.0 11.580534476555295
                            CHANNELS 3 Zrotation Xrotation Yrotation
                            JOINT Head
                            {
                                OFFSET 0.0 0.0 25.371507836486618
                                CHANNELS 3 Zrotation Xrotation Yrotation
                                End Site
                                {
                                    OFFSET 0 0 0
                                }
                            }
                        }
                    }
                }
            }
        }
    }
}
MOTION
Frames: 6
Frame Time: 0.03333333333333333
-4.677259388566017 -21.30156619548798 522.4055311203003 27.751303976980942 -78.95462861325925 27.923840489021046 6.111873954755281 -13.682615536978604 -20.294925019143548 3.4500091400038215 -1.4953421465254642 38.27260135603502 -103.36057180030008 -6.3611093629270335e-15 73.26006419483718 -6.3611093629270335e-15 -1.5902773407317584e-15 3.1805546814635168e-15 9.781112924723512 1.9691258813968227 19.469965190198643 -27.313097521999545 -12.600634517679927 -34.02439224732949 104.78275296896788 0.0 -75.59408920742959 0.0 0.0 0.0 0.06771240227937814 -11.782435849051943 -0.21645420593225628 7.951386703658792e-16 0.0 0.0 7.951386703658792e-16 0.0 0.0 7.951386703658792e-16 0.0 0.0 7.951386703658792e-16 0.0 0.0 138.51164098641323 7.561346017087888 -156.58198472589083 103.88999923077661 -6.861924957750087e-15 8.765506538472563e-15 -4.709380647213521e-16 55.29059497516491 1.4608479868877222e-14 0.0 0.0 0.0 -133.46079153671548 9.4552120990961 155.01594966138597 -105.8721903959006 0.0 -0.0 180.0 29.538634576842025 -180.0 1.5902773407317584e-15 0.0 0.0 0.5441321131508872 2.4847803315113353e-17 -1.1798940043879385e-19 0.0 2.4848083448933725e-17 0.0
-4.677259388566017 -21.30156619548798 522.4055311203003 27.751303976980942 -78.95462861325925 27.923840489021046 6.111873954755281 -13.682615536978604 -20.294925019143548 3.4500091400038215 -1.4953421465254642 38.27260135603502 -103.36057180030008 -6.3611093629270335e-15 73.26006419483718 -6.3611093629270335e-15 -1.5902773407317584e-15 3.1805546814635168e-15 9.781112924723512 1.9691258813968227 19.469965190198643 -27.313097521999545 -12.600634517679927 -34.02439224732949 104.78275296896788 0.0 -75.59408920742959 0.0 0.0 0.0 0.06771240227937814 -11.782435849051943 -0.21645420593225628 7.951386703658792e-16 0.0 0.0 7.951386703658792e-16 0.0 0.0 7.951386703658792e-16 0.0 0.0 7.951386703658792e-16 0.0 0.0 138.51164098641323 7.561346017087888 -156.58198472589083 103.88999923077661 -6.861924957750087e-15 8.765506538472563e-15 -4.709380647213521e-16 55.29059497516491 1.4608479868877222e-14 0.0 0.0 0.0 -133.46079153671548 9.4552120990961 155.01594966138597 -105.8721903959006 0.0 -0.0 180.0 29.538634576842025 -180.0 1.5902773407317584e-15 0.0 0.0 0.5441321131508872 2.4847803315113353e-17 -1.1798940043879385e-19 0.0 2.4848083448933725e-17 0.0
-4.677259388566017 -21.30156619548798 522.4055311203003 27.751303976980942 -78.95462861325925 27.923840489021046 6.111873954755281 -13.682615536978604 -20.294925019143548 3.4500091400038215 -1.4953421465254642 38.27260135603502 -103.36057180030008 -6.3611093629270335e-15 73.26006419483718 -6.3611093629270335e-15 -1.5902773407317584e-15 3.1805546814635168e-15 9.781112924723512 1.9691258813968227 19.469965190198643 -27.313097521999545 -12.600634517679927 -34.02439224732949 104.78275296896788 0.0 -75.59408920742959 0.0 0.0 0.0 0.06771240227937814 -11.782435849051943 -0.21645420593225628 7.951386703658792e-16 0.0 0.0 7.951386703658792e-16 0.0 0.0 7.951386703658792e-16 0.0 0.0 7.951386703658792e-16 0.0 0.0 138.51164098641323 7.561346017087888 -156.58198472589083 103.88999923077661 -6.861924957750087e-15 8.765506538472563e-15 -4.709380647213521e-16 55.29059497516491 1.4608479868877222e-14 0.0 0.0 0.0 -133.46079153671548 9.4552120990961 155.01594966138597 -105.8721903959006 0.0 -0.0 180.0 29.538634576842025 -180.0 1.5902773407317584e-15 0.0 0.0 0.5441321131508872 2.4847803315113353e-17 -1.1798940043879385e-19 0.0 2.4848083448933725e-17 0.0
-4.758136215806008 -21.2818909406662 522.2404375076294 29.080637413564418 -79.43419911828768 29.249107863691734 5.987320664054417 -13.13517767464063 -20.489069587154297 3.5101180875662568 -1.519803051373758 39.314598875598286 -103.57162698214701 -9.54166404439055e-15 73.48832560568219 -6.3611093629270335e-15 -1.5902773407317584e-15 3.1805546814635168e-15 9.870315460851117 2.5501213153795406 19.142944327931072 -27.69547867121399 -12.85502940181076 -33.70743333327367 104.95109907827788 3.1805546814635168e-15 -75.79259725933825 0.0 0.0 0.0 0.02372269642037623 -11.240363677727812 -0.2210853863642109 0.0 0.0 0.0 0.0 0.0 0.0 0.0 0.0 0.0 0.0 0.0 0.0 138.44842646469502 7.623677626242107 -156.41244118637272 103.62324812920704 -6.066690045471851e-15 -1.2865217974358718e-14 -9.559283367664548e-15 53.552607131571335 4.823780195805367e-15 7.951386703658792e-16 0.0 0.0 -133.50005449086788 9.095630861488596 154.84870011369821 -106.6840993837373 -1.305156326976417e-15 8.900786011155945e-15 180.0 29.22424338670969 180.0 1.5902773407317584e-15 0.0 0.0 0.6201673569541524 2.430773261939091e-15 -8.08305742634073e-16 -3.975693351829396e-16 0.0 0.0
-4.77577165067196 -21.27255728244782 522.1921680450439 29.97310608815508 -79.68973428239289 30.115457374560894 5.971129122664785 -12.846634393159489 -20.51801127154597 3.418662805896499 -1.4809494968881813 39.722902492972246 -103.65625651129214 -1.90833280887811e-14 73.50936779970453 0.0 0.0 0.0 9.917657933682673 2.881902632553388 19.050851900552264 -27.841161250330526 -12.93751086087742 -33.66912819913102 104.98883590313224 -1.5902773407317584e-14 -75.85231555711874 0.0 0.0 0.0 0.017661008046547758 -10.93481699894049 -0.20372388753162582 3.975693351829396e-16 0.0 0.0 3.975693351829396e-16 0.0 0.0 3.975693351829396e-16 0.0 0.0 3.975693351829396e-16 0.0 0.0 138.35789470837042 7.8121431604408285 -156.37732579808394 103.24482593722945 -4.4349799050559424e-16 1.0805957985203946e-14 0.0 52.60461543825213 0.0 -7.951386703658792e-16 0.0 0.0 -133.52279034746616 9.081716539181151 154.8182683067191 -106.76108215854534 -1.400542859161769e-14 2.4832502090380605e-15 180.0 29.199281207182455 -180.0 1.5902773407317584e-15 0.0 0.0 0.6251198140601997 -3.0270834553224915e-15 8.116640097822489e-16 0.0 0.0 0.0
-4.7921686068177225 -21.261294221878057 522.1428646087647 30.97178163286229 -79.94436712218544 31.093560956137605 5.951499665644352 -12.551483660804498 -20.547331146295612 3.378409489685692 -1.4644645982939088 39.94923034545734 -103.69840795179228 -6.3611093629270335e-15 73.5322329128415 0.0 0.0 0.0 9.966139009795143 3.215963072676485 18.956119512170797 -27.965640849525766 -13.008939218148198 -33.63708256711972 105.02044991976982 0.0 -75.89884009329633 0.0 0.0 0.0 0.011579422047439294 -10.60792805788745 -0.1890045039912828 -3.975693351829396e-16 0.0 0.0 -3.975693351829396e-16 0.0 0.0 -3.975693351829396e-16 0.0 0.0 -3.975693351829396e-16 0.0 0.0 138.29716028564002 7.899935732180687 -156.33694920783094 103.01776698842893 4.948889720349086e-16 -6.223587474033363e-16 -9.170647604057344e-15 51.99282273998962 1.1549279128999668e-14 7.951386703658792e-16 0.0 0.0 -133.56405887400652 9.092963196844368 154.77326356833348 -106.83976655175503 1.8954395985110952e-15 2.554062804665459e-15 -180.0 29.17502687162814 180.0 -1.5902773407317584e-15 2.2069531490250793e-32 -1.5902773407317584e-15 0.642209950535286 7.80440377528227e-15 3.5383659594718013e-16 -3.975693351829396e-16 0.0 0.0
